<?xml version="1.0" encoding="utf-8"?>
<!-- Generator: Adobe Illustrator 19.0.0, SVG Export Plug-In . SVG Version: 6.00 Build 0)  -->
<svg version="1.1" xmlns="http://www.w3.org/2000/svg" xmlns:xlink="http://www.w3.org/1999/xlink" x="0px" y="0px"
	 viewBox="0 0 440.7 171.3" style="enable-background:new 0 0 440.7 171.3;" xml:space="preserve">
<style type="text/css">
	.st0{fill:#CE9178;}
	.st1{font-family:'Consolas';}
	.st2{font-size:62px;}
	.st3{fill:none;stroke:#000000;stroke-miterlimit:10;}
	.st4{fill:#FDFDFE;}
	.st5{fill:#808285;}
	.st6{font-size:65.6657px;}
</style>
<g id="Layer_2">
</g>
<g id="Layer_1">
	<g id="XMLID_1_">
		<text id="XMLID_53_" transform="matrix(1 0 0 1 244.5252 110.076)" class="st0 st1 st2">bit   </text>
	</g>
	<path id="XMLID_3_" class="st3" d="M416.7,224.7"/>
	<g id="XMLID_5_">
		<g id="XMLID_54_">
			<path id="XMLID_60_" class="st4" d="M118,72c-4.8,0-10,0.5-12.9,4.7c-2.6,3.7-1.3,8.4,1.5,11.7c3.5,4.2,9,6.1,12.6,10.1
				c3.8,4.3,2.7,9.3-2.6,11.4c-2.9,1.2-6.3,1.4-9.3,2.1c-3.1,0.7-1.8,5.5,1.3,4.8c7.9-1.8,20.9-4.4,17.8-15.7
				c-1.3-4.6-5-7.7-8.7-10.3c-2.2-1.5-4.7-2.9-6.6-4.9c-2.3-2.4-3.7-5.7,0.1-8c1.8-1.1,4.9-0.9,6.9-0.9C121.3,77,121.3,72,118,72
				L118,72z"/>
		</g>
	</g>
	<g id="XMLID_6_">
		<g id="XMLID_48_">
			<path id="XMLID_52_" class="st4" d="M146.7,78.2c-9.5-3.6-13.9,8.2-13.3,15.6c0.7,9.4,7.7,16.6,17,17.4c3.2,0.3,3.2-4.7,0-5
				c-5.6-0.5-10.1-4.5-11.6-9.9c-1.1-4.1-0.6-16,6.5-13.3C148.4,84.2,149.7,79.3,146.7,78.2L146.7,78.2z"/>
		</g>
	</g>
	<g id="XMLID_8_">
		<g id="XMLID_42_">
			<path id="XMLID_46_" class="st4" d="M160.9,86.4c1.9,7.6,3.2,15.3,3.9,23.1c1.6-0.2,3.3-0.4,4.9-0.7c-1.2-5.6-1.9-11.6-1.4-17.4
				c0.8-7.9,6.5-8.6,13.1-7.4c3.1,0.6,4.5-4.3,1.3-4.8c-6.5-1.1-14.1-1.6-17.7,5.1c-3.9,7.3-1.8,18.1-0.2,25.8
				c0.6,2.7,5.2,2.2,4.9-0.7c-0.7-8.3-2.1-16.4-4.1-24.5C164.9,81.9,160.1,83.2,160.9,86.4L160.9,86.4z"/>
		</g>
	</g>
	<g id="XMLID_9_">
		<g id="XMLID_36_">
			<path id="XMLID_40_" class="st4" d="M194.4,90.5c1.1,6.3,1.6,12.7,1.7,19.1c0,3.2,5,3.2,5,0c-0.1-6.9-0.7-13.6-1.9-20.4
				C198.7,86,193.9,87.3,194.4,90.5L194.4,90.5z"/>
		</g>
	</g>
	<g id="XMLID_34_">
		<g id="XMLID_21_">
			<path id="XMLID_25_" class="st4" d="M211.7,47.6c0.9,20.8,1.7,41.6,2.6,62.4c1.7,0,3.3,0,5,0c-0.4-4.8-0.6-9.6-0.4-14.4
				c0.1-3.8,0.4-7.9,4.6-9.2c2.3-0.7,4.9-1.2,7,0.1c5.2,3.1,0.8,9.7-2.3,12.7c-3.3,3.2-7.4,5-11.9,6c-3.1,0.7-1.8,5.5,1.3,4.8
				c6.7-1.4,13.4-5.2,17.3-11c3.3-5,4.5-12.6-1-16.4c-4.8-3.3-13.6-2-17.4,2.3c-2.4,2.7-2.4,6.4-2.6,9.9c-0.2,5.1-0.1,10.2,0.4,15.3
				c0.3,3.2,5.1,3.3,5,0c-0.9-20.8-1.7-41.6-2.6-62.4C216.6,44.4,211.6,44.4,211.7,47.6L211.7,47.6z"/>
		</g>
	</g>
	<g id="XMLID_11_">
		<g id="XMLID_68_">
			<path id="XMLID_72_" class="st4" d="M202.8,65.7c-2.6-2.4-6.6-2.1-9.1,0.4c-2.9,2.9-2.7,7.8-1.2,11.3c1.4,3.3,4.7,5.6,8.2,3.7
				c3.9-2.2,3.9-7,1.6-10.4c-0.2-0.3-0.6-0.7-1.1-0.6c-3.8,0.5-8.3,3.7-9.5,7.5c-0.8,2.7,1.9,6,4.6,4c1.3-0.9,0-3.1-1.3-2.2
				c-0.9-1.3-0.8-2.3,0.3-3.1c0.4-0.4,0.8-0.9,1.3-1.3c1.3-1.2,2.7-2.2,4.5-2.4c-0.4-0.2-0.7-0.4-1.1-0.6c1.4,2.1,2.2,5.8-0.9,7
				c-2.8,1.1-4.4-1.8-4.9-4c-0.5-2-0.6-4.3,0.5-6.1c1.2-2.1,4.3-3.2,6.2-1.4C202.2,68.6,204,66.8,202.8,65.7L202.8,65.7z"/>
		</g>
	</g>
	<text id="XMLID_4_" transform="matrix(1 0 0 1 28.625 108.7734)" class="st5 st1 st6">&lt;/       &gt;</text>
</g>
</svg>
